<mxfile host="app.diagrams.net" agent="Mozilla/5.0 (Windows NT 10.0; Win64; x64) AppleWebKit/537.36 (KHTML, like Gecko) Chrome/129.0.0.0 Safari/537.36" version="24.7.16">
  <diagram name="Page-1" id="u-TijtCvfhiPi-FsUIMJ">
    <mxGraphModel dx="882" dy="467" grid="0" gridSize="10" guides="1" tooltips="1" connect="1" arrows="1" fold="1" page="1" pageScale="1" pageWidth="827" pageHeight="1169" math="0" shadow="0">
      <root>
        <mxCell id="0" />
        <mxCell id="1" parent="0" />
        <mxCell id="cfiWxP6kujYvzcGbKNt3-1" value="WEBSITE" style="rounded=0;whiteSpace=wrap;html=1;" vertex="1" parent="1">
          <mxGeometry width="827" height="36" as="geometry" />
        </mxCell>
        <mxCell id="cfiWxP6kujYvzcGbKNt3-4" value="" style="shape=image;html=1;verticalAlign=top;verticalLabelPosition=bottom;labelBackgroundColor=#ffffff;imageAspect=0;aspect=fixed;image=https://cdn1.iconfinder.com/data/icons/100-basic-for-user-interface/32/78-user-128.png;" vertex="1" parent="1">
          <mxGeometry x="769" y="11" width="14" height="14" as="geometry" />
        </mxCell>
        <mxCell id="cfiWxP6kujYvzcGbKNt3-8" value="" style="shape=image;html=1;verticalAlign=top;verticalLabelPosition=bottom;labelBackgroundColor=#ffffff;imageAspect=0;aspect=fixed;image=https://cdn0.iconfinder.com/data/icons/business-collection-2027/60/cart-5-128.png" vertex="1" parent="1">
          <mxGeometry x="791" y="8.5" width="19" height="19" as="geometry" />
        </mxCell>
        <mxCell id="cfiWxP6kujYvzcGbKNt3-10" value="" style="shape=image;html=1;verticalAlign=top;verticalLabelPosition=bottom;labelBackgroundColor=#ffffff;imageAspect=0;aspect=fixed;image=https://cdn0.iconfinder.com/data/icons/payment-76/512/search-128.png" vertex="1" parent="1">
          <mxGeometry x="748" y="11" width="16" height="16" as="geometry" />
        </mxCell>
        <mxCell id="cfiWxP6kujYvzcGbKNt3-11" value="" style="editableCssRules=.*;html=1;shape=image;verticalLabelPosition=bottom;labelBackgroundColor=#ffffff;verticalAlign=top;aspect=fixed;imageAspect=0;image=data:image/svg+xml,PHN2ZyB4bWxucz0iaHR0cDovL3d3dy53My5vcmcvMjAwMC9zdmciIHhtbG5zOnY9Imh0dHBzOi8vdmVjdGEuaW8vbmFubyIgd2lkdGg9IjE2MCIgaGVpZ2h0PSIyNDAiIHZpZXdCb3g9IjAgMCAxNjAgMjQwIj4mI3hhOwk8c3R5bGUgdHlwZT0idGV4dC9jc3MiPiYjeGE7CS5zdDB7ZmlsbDojNDY2YmIwO30mI3hhOwk8L3N0eWxlPiYjeGE7CTxwYXRoIGNsYXNzPSJzdDAiIGQ9Ik02MCAyNDBMMCAyMTBoMTYwem0wLTE2MEwwIDIwMGw2MC0xMHpNNzAgMHYxOTBsOTAgMTB6Ii8+JiN4YTs8L3N2Zz4=;fontColor=default;" vertex="1" parent="1">
          <mxGeometry x="21" y="5.5" width="16.25" height="25" as="geometry" />
        </mxCell>
        <mxCell id="cfiWxP6kujYvzcGbKNt3-12" value="" style="rounded=0;whiteSpace=wrap;html=1;" vertex="1" parent="1">
          <mxGeometry y="36" width="827" height="251" as="geometry" />
        </mxCell>
      </root>
    </mxGraphModel>
  </diagram>
</mxfile>
